<svg width="303" height="303" viewBox="0 0 303 303" fill="none" xmlns="http://www.w3.org/2000/svg">
<mask id="mask0_1202_130" style="mask-type:alpha" maskUnits="userSpaceOnUse" x="0" y="0" width="303" height="303">
<rect width="303" height="303" rx="49" fill="#D9D9D9"/>
</mask>
<g mask="url(#mask0_1202_130)">
<rect width="303" height="303" rx="50" fill="white"/>
<path d="M174.1 248.5C169.7 248.5 166.3 246.6 163.9 242.8C161.7 239 160.6 234.6 160.6 229.6C160.6 223.6 161.7 216.7 163.9 208.9C166.1 201.3 168.9 193.5 172.3 185.5C175.7 177.3 179.2 169.4 182.8 161.8C186.6 154.2 189.9 147.4 192.7 141.4C195.7 135.4 197.7 130.8 198.7 127.6C199.9 124 200.5 121.3 200.5 119.5C200.5 117.5 199.8 116.5 198.4 116.5C196.8 116.5 194.4 117.8 191.2 120.4C188.2 122.8 185.3 125.5 182.5 128.5C179.7 131.5 177.7 133.7 176.5 135.1C169.9 142.3 164.1 150.3 159.1 159.1C154.1 167.9 150.9 175.4 149.5 181.6C149.3 182.6 149 184.4 148.6 187C148.2 189.4 147.3 190.6 145.9 190.6C144.5 190.6 143.4 189.9 142.6 188.5C142 187.1 141.6 185.6 141.4 184C141.2 183 141 181.1 140.8 178.3C140.8 175.3 140.8 173.1 140.8 171.7C140.8 163.1 141.7 154.5 143.5 145.9C145.3 137.1 147.3 128.7 149.5 120.7C151.9 112.5 154 105 155.8 98.2C157.6 91.4 158.5 85.6 158.5 80.8C158.5 77.6 157.9 75 156.7 73C155.7 70.8 154.4 69.7 152.8 69.7C150.4 69.7 147.6 71.7 144.4 75.7C141.4 79.7 138.3 85.1 135.1 91.9C131.9 98.7 128.9 106.2 126.1 114.4C123.5 122.6 121.3 130.9 119.5 139.3C117.9 147.7 117.1 155.6 117.1 163C117.1 167.2 117.4 171.5 118 175.9C118.8 180.3 119.2 184.2 119.2 187.6C119.2 190.2 118.8 192.1 118 193.3C117.4 194.5 115.8 195.1 113.2 195.1C108.4 195.1 105.4 190.4 104.2 181C102.8 172.8 101.3 163.5 99.7 153.1C98.3 142.7 96.5 133.5 94.3 125.5C93.7 123.3 93 121 92.2 118.6C91.4 116.2 89.9 114 87.7 112C87.5 111.6 87 111.2 86.2 110.8C85.4 110.4 85 110 85 109.6C85 108.8 86.1 108.4 88.3 108.4C91.3 108.4 94.1 110.1 96.7 113.5C99.3 116.7 101.6 120.7 103.6 125.5C105.6 130.3 107.3 135.1 108.7 139.9C110.3 144.5 111.5 148.2 112.3 151C114.1 140 116.1 130 118.3 121C120.5 111.8 123.3 102.9 126.7 94.3C129.1 88.5 131.9 82.9 135.1 77.5C138.3 72.1 141.9 67.7 145.9 64.3C149.9 60.7 154.1 58.9 158.5 58.9C161.3 58.9 164.6 60.4 168.4 63.4C172.4 66.4 174.4 71.2 174.4 77.8C174.4 80.8 173.6 84.4 172 88.6C170.6 92.6 169 97.1 167.2 102.1C164.6 109.1 161.8 117 158.8 125.8C155.8 134.4 153.2 142.3 151 149.5C148.8 156.7 147.5 161.7 147.1 164.5C146.7 167.7 146.4 170.4 146.2 172.6C146.2 174.6 146.2 176.5 146.2 178.3C147.4 173.1 150 167.1 154 160.3C158.2 153.3 162 147.4 165.4 142.6C169.2 137.2 173.2 132.1 177.4 127.3C181.8 122.3 186.3 118.3 190.9 115.3C195.7 112.1 200.4 110.5 205 110.5C207.2 110.5 209.1 111.1 210.7 112.3C212.3 113.5 213.1 115.8 213.1 119.2C213.1 123.8 211.6 129.1 208.6 135.1C205.8 140.9 202.3 146.9 198.1 153.1C194.1 159.1 190.4 165 187 170.8C182.6 178.4 178.5 186.6 174.7 195.4C171.1 204 169.3 212.9 169.3 222.1C169.3 229.7 170.2 235.2 172 238.6C174 242 176.1 243.7 178.3 243.7C179.7 243.7 181.1 243.2 182.5 242.2C184.1 241.2 185.4 240.3 186.4 239.5C186.8 239.1 187.4 238.5 188.2 237.7C189 237.1 189.7 236.8 190.3 236.8C191.1 236.8 191.2 237.6 190.6 239.2C190.4 240 189.8 240.8 188.8 241.6C187.8 242.6 187.1 243.3 186.7 243.7C182.9 246.9 178.7 248.5 174.1 248.5Z" fill="black"/>
</g>
</svg>
