<svg width="738" height="381" viewBox="0 0 738 381" fill="none" xmlns="http://www.w3.org/2000/svg">
<rect y="65" width="303" height="303" rx="50" fill="white"/>
<path d="M174.1 313.5C169.7 313.5 166.3 311.6 163.9 307.8C161.7 304 160.6 299.6 160.6 294.6C160.6 288.6 161.7 281.7 163.9 273.9C166.1 266.3 168.9 258.5 172.3 250.5C175.7 242.3 179.2 234.4 182.8 226.8C186.6 219.2 189.9 212.4 192.7 206.4C195.7 200.4 197.7 195.8 198.7 192.6C199.9 189 200.5 186.3 200.5 184.5C200.5 182.5 199.8 181.5 198.4 181.5C196.8 181.5 194.4 182.8 191.2 185.4C188.2 187.8 185.3 190.5 182.5 193.5C179.7 196.5 177.7 198.7 176.5 200.1C169.9 207.3 164.1 215.3 159.1 224.1C154.1 232.9 150.9 240.4 149.5 246.6C149.3 247.6 149 249.4 148.6 252C148.2 254.4 147.3 255.6 145.9 255.6C144.5 255.6 143.4 254.9 142.6 253.5C142 252.1 141.6 250.6 141.4 249C141.2 248 141 246.1 140.8 243.3C140.8 240.3 140.8 238.1 140.8 236.7C140.8 228.1 141.7 219.5 143.5 210.9C145.3 202.1 147.3 193.7 149.5 185.7C151.9 177.5 154 170 155.8 163.2C157.6 156.4 158.5 150.6 158.5 145.8C158.5 142.6 157.9 140 156.7 138C155.7 135.8 154.4 134.7 152.8 134.7C150.4 134.7 147.6 136.7 144.4 140.7C141.4 144.7 138.3 150.1 135.1 156.9C131.9 163.7 128.9 171.2 126.1 179.4C123.5 187.6 121.3 195.9 119.5 204.3C117.9 212.7 117.1 220.6 117.1 228C117.1 232.2 117.4 236.5 118 240.9C118.8 245.3 119.2 249.2 119.2 252.6C119.2 255.2 118.8 257.1 118 258.3C117.4 259.5 115.8 260.1 113.2 260.1C108.4 260.1 105.4 255.4 104.2 246C102.8 237.8 101.3 228.5 99.7 218.1C98.3 207.7 96.5 198.5 94.3 190.5C93.7 188.3 93 186 92.2 183.6C91.4 181.2 89.9 179 87.7 177C87.5 176.6 87 176.2 86.2 175.8C85.4 175.4 85 175 85 174.6C85 173.8 86.1 173.4 88.3 173.4C91.3 173.4 94.1 175.1 96.7 178.5C99.3 181.7 101.6 185.7 103.6 190.5C105.6 195.3 107.3 200.1 108.7 204.9C110.3 209.5 111.5 213.2 112.3 216C114.1 205 116.1 195 118.3 186C120.5 176.8 123.3 167.9 126.7 159.3C129.1 153.5 131.9 147.9 135.1 142.5C138.3 137.1 141.9 132.7 145.9 129.3C149.9 125.7 154.1 123.9 158.5 123.9C161.3 123.9 164.6 125.4 168.4 128.4C172.4 131.4 174.4 136.2 174.4 142.8C174.4 145.8 173.6 149.4 172 153.6C170.6 157.6 169 162.1 167.2 167.1C164.6 174.1 161.8 182 158.8 190.8C155.8 199.4 153.2 207.3 151 214.5C148.8 221.7 147.5 226.7 147.1 229.5C146.7 232.7 146.4 235.4 146.2 237.6C146.2 239.6 146.2 241.5 146.2 243.3C147.4 238.1 150 232.1 154 225.3C158.2 218.3 162 212.4 165.4 207.6C169.2 202.2 173.2 197.1 177.4 192.3C181.8 187.3 186.3 183.3 190.9 180.3C195.7 177.1 200.4 175.5 205 175.5C207.2 175.5 209.1 176.1 210.7 177.3C212.3 178.5 213.1 180.8 213.1 184.2C213.1 188.8 211.6 194.1 208.6 200.1C205.8 205.9 202.3 211.9 198.1 218.1C194.1 224.1 190.4 230 187 235.8C182.6 243.4 178.5 251.6 174.7 260.4C171.1 269 169.3 277.9 169.3 287.1C169.3 294.7 170.2 300.2 172 303.6C174 307 176.1 308.7 178.3 308.7C179.7 308.7 181.1 308.2 182.5 307.2C184.1 306.2 185.4 305.3 186.4 304.5C186.8 304.1 187.4 303.5 188.2 302.7C189 302.1 189.7 301.8 190.3 301.8C191.1 301.8 191.2 302.6 190.6 304.2C190.4 305 189.8 305.8 188.8 306.6C187.8 307.6 187.1 308.3 186.7 308.7C182.9 311.9 178.7 313.5 174.1 313.5Z" fill="black"/>
<path d="M378.4 257V170.6H405.46C406.26 170.6 407.74 170.62 409.9 170.66C412.1 170.7 414.2 170.86 416.2 171.14C422.96 171.98 428.64 174.4 433.24 178.4C437.88 182.4 441.38 187.48 443.74 193.64C446.1 199.76 447.28 206.48 447.28 213.8C447.28 221.16 446.1 227.92 443.74 234.08C441.38 240.2 437.88 245.26 433.24 249.26C428.64 253.22 422.96 255.62 416.2 256.46C414.2 256.74 412.1 256.9 409.9 256.94C407.74 256.98 406.26 257 405.46 257H378.4ZM391.24 245.06H405.46C406.82 245.06 408.44 245.02 410.32 244.94C412.2 244.86 413.86 244.7 415.3 244.46C419.7 243.62 423.26 241.72 425.98 238.76C428.74 235.76 430.76 232.08 432.04 227.72C433.32 223.36 433.96 218.72 433.96 213.8C433.96 208.72 433.3 204.02 431.98 199.7C430.66 195.34 428.62 191.7 425.86 188.78C423.14 185.82 419.62 183.94 415.3 183.14C413.86 182.86 412.18 182.7 410.26 182.66C408.38 182.58 406.78 182.54 405.46 182.54H391.24V245.06ZM483.992 258.8C477.552 258.8 471.892 257.4 467.012 254.6C462.172 251.76 458.392 247.82 455.672 242.78C452.992 237.7 451.652 231.82 451.652 225.14C451.652 218.06 452.972 211.92 455.612 206.72C458.292 201.52 462.012 197.5 466.772 194.66C471.532 191.82 477.072 190.4 483.392 190.4C489.992 190.4 495.612 191.94 500.252 195.02C504.892 198.06 508.352 202.4 510.632 208.04C512.952 213.68 513.872 220.38 513.392 228.14H500.852V223.58C500.772 216.06 499.332 210.5 496.532 206.9C493.772 203.3 489.552 201.5 483.872 201.5C477.592 201.5 472.872 203.48 469.712 207.44C466.552 211.4 464.972 217.12 464.972 224.6C464.972 231.72 466.552 237.24 469.712 241.16C472.872 245.04 477.432 246.98 483.392 246.98C487.312 246.98 490.692 246.1 493.532 244.34C496.412 242.54 498.652 239.98 500.252 236.66L512.552 240.56C510.032 246.36 506.212 250.86 501.092 254.06C495.972 257.22 490.272 258.8 483.992 258.8ZM460.892 228.14V218.36H507.152V228.14H460.892ZM545.633 258.74C537.753 258.74 531.333 257 526.373 253.52C521.413 250.04 518.373 245.14 517.253 238.82L530.093 236.84C530.893 240.2 532.733 242.86 535.613 244.82C538.533 246.74 542.153 247.7 546.473 247.7C550.393 247.7 553.453 246.9 555.653 245.3C557.893 243.7 559.013 241.5 559.013 238.7C559.013 237.06 558.613 235.74 557.813 234.74C557.053 233.7 555.433 232.72 552.953 231.8C550.473 230.88 546.693 229.74 541.613 228.38C536.053 226.94 531.633 225.4 528.353 223.76C525.113 222.08 522.793 220.14 521.393 217.94C520.033 215.7 519.353 213 519.353 209.84C519.353 205.92 520.393 202.5 522.473 199.58C524.553 196.66 527.473 194.4 531.233 192.8C535.033 191.2 539.473 190.4 544.553 190.4C549.513 190.4 553.933 191.18 557.813 192.74C561.693 194.3 564.833 196.52 567.233 199.4C569.633 202.24 571.073 205.58 571.553 209.42L558.713 211.76C558.273 208.64 556.813 206.18 554.333 204.38C551.853 202.58 548.633 201.6 544.673 201.44C540.873 201.28 537.793 201.92 535.433 203.36C533.073 204.76 531.893 206.7 531.893 209.18C531.893 210.62 532.333 211.84 533.213 212.84C534.133 213.84 535.893 214.8 538.493 215.72C541.093 216.64 544.933 217.74 550.013 219.02C555.453 220.42 559.773 221.98 562.973 223.7C566.173 225.38 568.453 227.4 569.813 229.76C571.213 232.08 571.913 234.9 571.913 238.22C571.913 244.62 569.573 249.64 564.893 253.28C560.253 256.92 553.833 258.74 545.633 258.74ZM580.389 181.58V169.4H592.929V181.58H580.389ZM580.389 257V192.2H592.929V257H580.389ZM631.647 287.6C628.167 287.6 624.787 287.06 621.507 285.98C618.267 284.9 615.307 283.3 612.627 281.18C609.947 279.1 607.727 276.52 605.967 273.44L617.547 267.56C618.947 270.32 620.947 272.34 623.547 273.62C626.147 274.9 628.887 275.54 631.767 275.54C635.327 275.54 638.367 274.9 640.887 273.62C643.407 272.38 645.307 270.5 646.587 267.98C647.907 265.46 648.547 262.34 648.507 258.62V240.5H650.007V192.2H661.107V258.74C661.107 260.46 661.047 262.1 660.927 263.66C660.807 265.22 660.587 266.78 660.267 268.34C659.347 272.7 657.587 276.3 654.987 279.14C652.427 281.98 649.147 284.1 645.147 285.5C641.187 286.9 636.687 287.6 631.647 287.6ZM630.687 258.8C624.647 258.8 619.427 257.3 615.027 254.3C610.667 251.3 607.287 247.22 604.887 242.06C602.527 236.86 601.347 231.02 601.347 224.54C601.347 218.02 602.547 212.2 604.947 207.08C607.347 201.92 610.747 197.86 615.147 194.9C619.587 191.9 624.847 190.4 630.927 190.4C637.047 190.4 642.187 191.9 646.347 194.9C650.547 197.86 653.707 201.92 655.827 207.08C657.987 212.24 659.067 218.06 659.067 224.54C659.067 231.02 657.987 236.84 655.827 242C653.667 247.16 650.487 251.26 646.287 254.3C642.087 257.3 636.887 258.8 630.687 258.8ZM632.427 247.46C636.547 247.46 639.907 246.48 642.507 244.52C645.107 242.56 647.007 239.86 648.207 236.42C649.407 232.98 650.007 229.02 650.007 224.54C650.007 220.06 649.387 216.1 648.147 212.66C646.947 209.22 645.067 206.54 642.507 204.62C639.987 202.7 636.767 201.74 632.847 201.74C628.687 201.74 625.267 202.76 622.587 204.8C619.907 206.84 617.907 209.58 616.587 213.02C615.307 216.46 614.667 220.3 614.667 224.54C614.667 228.82 615.307 232.7 616.587 236.18C617.907 239.62 619.867 242.36 622.467 244.4C625.107 246.44 628.427 247.46 632.427 247.46ZM717.435 257V225.14C717.435 222.62 717.215 220.04 716.775 217.4C716.375 214.72 715.575 212.24 714.375 209.96C713.215 207.68 711.555 205.84 709.395 204.44C707.275 203.04 704.495 202.34 701.055 202.34C698.815 202.34 696.695 202.72 694.695 203.48C692.695 204.2 690.935 205.38 689.415 207.02C687.935 208.66 686.755 210.82 685.875 213.5C685.035 216.18 684.615 219.44 684.615 223.28L676.815 220.34C676.815 214.46 677.915 209.28 680.115 204.8C682.315 200.28 685.475 196.76 689.595 194.24C693.715 191.72 698.695 190.46 704.535 190.46C709.015 190.46 712.775 191.18 715.815 192.62C718.855 194.06 721.315 195.96 723.195 198.32C725.115 200.64 726.575 203.18 727.575 205.94C728.575 208.7 729.255 211.4 729.615 214.04C729.975 216.68 730.155 219 730.155 221V257H717.435ZM671.895 257V192.2H683.115V210.92H684.615V257H671.895Z" fill="white"/>
</svg>
